<svg xmlns="http://www.w3.org/2000/svg" viewBox="0 0 560 420" role="img" aria-labelledby="photoTitle"><title id="photoTitle">Student working at laptop illustration</title><rect width="560" height="420" rx="32" fill="#e8f1fb"/><rect x="68" y="68" width="424" height="276" rx="24" fill="#ffffff"/><rect x="100" y="110" width="360" height="32" rx="16" fill="#123d5a"/><rect x="100" y="170" width="260" height="20" rx="10" fill="#334e68"/><rect x="100" y="210" width="300" height="20" rx="10" fill="#334e68"/><rect x="100" y="250" width="220" height="20" rx="10" fill="#334e68"/><circle cx="280" cy="340" r="52" fill="#f59e0b"/><path d="M278 274c-45 0-82 37-82 82h164c0-45-37-82-82-82z" fill="#1d4d6d"/><path d="M278 174c-36 0-64 29-64 64h128c0-35-29-64-64-64z" fill="#0d2c43"/></svg>